<svg width="509" height="219" viewBox="0 0 509 219" fill="none" xmlns="http://www.w3.org/2000/svg">
<path d="M161.974 127.024C149.344 127.024 138.763 122.971 130.23 114.864C121.782 106.672 117.558 96.048 117.558 82.992C117.558 69.936 121.654 59.2693 129.846 50.992C138.123 42.7147 148.875 38.576 162.102 38.576C171.83 38.576 179.296 40.1973 184.502 43.44V62.384C178.102 58.4587 171.19 56.496 163.766 56.496C156.427 56.496 150.411 58.928 145.718 63.792C141.024 68.5707 138.678 74.9707 138.678 82.992C138.678 91.0133 141.024 97.3707 145.718 102.064C150.411 106.672 156.598 108.976 164.278 108.976C172.043 108.976 178.784 106.928 184.502 102.832V122.16C179.296 125.403 171.787 127.024 161.974 127.024ZM268.138 126H249.45V87.6C249.45 83.8453 248.511 80.9013 246.634 78.768C244.756 76.6347 242.324 75.568 239.338 75.568C236.863 75.568 234.388 76.4213 231.914 78.128C228.842 80.3467 227.306 84.8693 227.306 91.696V126H208.618V35.504H227.306V72.112C230.634 64.3467 237.119 60.464 246.762 60.464C253.076 60.464 258.196 62.4693 262.122 66.48C266.132 70.4907 268.138 76.5493 268.138 84.656V126ZM320.388 74.672C317.401 74.672 314.756 75.7813 312.452 78C310.148 80.1333 308.612 83.3333 307.844 87.6H330.372V86.064C329.774 78.4693 326.446 74.672 320.388 74.672ZM343.812 122.288C339.374 125.189 332.206 126.64 322.308 126.64C312.409 126.64 304.473 123.568 298.5 117.424C292.612 111.195 289.668 103.088 289.668 93.104C289.668 83.0347 292.526 75.0987 298.244 69.296C304.046 63.408 311.214 60.464 319.748 60.464C328.366 60.464 335.193 63.024 340.228 68.144C345.262 73.1787 347.78 80.7307 347.78 90.8C347.78 92.7627 347.438 96.1333 346.756 100.912H308.612C309.892 104.496 312.11 107.269 315.268 109.232C318.425 111.195 322.222 112.176 326.66 112.176C333.23 112.176 338.948 110.341 343.812 106.672V122.288ZM423.342 126H371.758V39.728H391.47V108.72H423.342V126ZM462.946 80.048C460.898 83.5467 459.874 88.0693 459.874 93.616C459.874 99.1627 460.898 103.728 462.946 107.312C465.079 110.811 468.194 112.56 472.29 112.56C476.471 112.56 479.543 110.853 481.506 107.44C483.554 103.941 484.578 99.4187 484.578 93.872C484.578 81.1573 480.439 74.8 472.162 74.8C468.066 74.8 464.994 76.5493 462.946 80.048ZM472.546 60.08C482.444 60.08 490.167 63.1947 495.714 69.424C501.26 75.6533 504.034 83.632 504.034 93.36C504.034 103.088 501.218 111.152 495.586 117.552C490.039 123.867 482.231 127.024 472.162 127.024C462.092 127.024 454.284 123.995 448.738 117.936C443.191 111.792 440.418 103.856 440.418 94.128C440.418 84.3147 443.319 76.208 449.122 69.808C454.924 63.3227 462.732 60.08 472.546 60.08Z" fill="#23578F"/>
<circle cx="60.7101" cy="173.183" r="3.83432" fill="#23578F"/>
<circle cx="77.9645" cy="167.432" r="3.83432" fill="#23578F"/>
<circle cx="93.3018" cy="155.929" r="5.75148" fill="#23578F"/>
<circle cx="102.249" cy="138.675" r="5.75148" fill="#23578F"/>
<circle cx="99.0533" cy="115.03" r="5.75148" fill="#23578F"/>
<circle cx="77.9645" cy="103.527" r="5.75148" fill="#23578F"/>
<circle cx="66.4615" cy="86.2722" r="5.75148" fill="#23578F"/>
<circle cx="66.4615" cy="65.1834" r="5.75148" fill="#23578F"/>
<circle cx="81.7988" cy="46.0118" r="5.75148" fill="#23578F"/>
<circle cx="87.5503" cy="26.8402" r="5.75148" fill="#23578F"/>
<circle cx="74.4497" cy="10.5444" r="4.7929" fill="#23578F"/>
<circle cx="60.7101" cy="3.83432" r="3.83432" fill="#23578F"/>
<circle cx="60.7101" cy="173.183" r="3.83432" fill="#23578F"/>
<circle cx="77.9645" cy="167.432" r="3.83432" fill="#23578F"/>
<circle cx="93.3018" cy="155.929" r="5.75148" fill="#23578F"/>
<circle cx="102.249" cy="138.675" r="5.75148" fill="#23578F"/>
<circle cx="99.0533" cy="115.03" r="5.75148" fill="#23578F"/>
<circle cx="77.9645" cy="103.527" r="5.75148" fill="#23578F"/>
<circle cx="66.4615" cy="86.2722" r="5.75148" fill="#23578F"/>
<circle cx="66.4615" cy="65.1834" r="5.75148" fill="#23578F"/>
<circle cx="81.7988" cy="46.0118" r="5.75148" fill="#23578F"/>
<circle cx="87.5503" cy="26.8402" r="5.75148" fill="#23578F"/>
<circle cx="74.4497" cy="10.5444" r="4.7929" fill="#23578F"/>
<circle cx="60.7101" cy="3.83432" r="3.83432" fill="#23578F"/>
<circle cx="3.83432" cy="3.83432" r="3.83432" transform="matrix(-1 -1.74846e-07 -1.74846e-07 1 51.1242 169.349)" fill="#23578F"/>
<circle cx="3.83432" cy="3.83432" r="3.83432" transform="matrix(-1 -1.74846e-07 -1.74846e-07 1 33.8698 163.598)" fill="#23578F"/>
<circle cx="5.75148" cy="5.75148" r="5.75148" transform="matrix(-1 -1.74846e-07 -1.74846e-07 1 20.4497 150.178)" fill="#23578F"/>
<circle cx="5.75148" cy="5.75148" r="5.75148" transform="matrix(-1 -1.74846e-07 -1.74846e-07 1 11.503 132.923)" fill="#23578F"/>
<circle cx="5.75148" cy="5.75148" r="5.75148" transform="matrix(-1 -1.74846e-07 -1.74846e-07 1 14.6982 109.278)" fill="#23578F"/>
<circle cx="5.75148" cy="5.75148" r="5.75148" transform="matrix(-1 -1.74846e-07 -1.74846e-07 1 35.787 97.7752)" fill="#23578F"/>
<circle cx="5.75148" cy="5.75148" r="5.75148" transform="matrix(-1 -1.74846e-07 -1.74846e-07 1 47.29 80.5207)" fill="#23578F"/>
<circle cx="5.75148" cy="5.75148" r="5.75148" transform="matrix(-1 -1.74846e-07 -1.74846e-07 1 47.29 59.432)" fill="#23578F"/>
<circle cx="5.75148" cy="5.75148" r="5.75148" transform="matrix(-1 -1.74846e-07 -1.74846e-07 1 31.9527 40.2604)" fill="#23578F"/>
<circle cx="5.75148" cy="5.75148" r="5.75148" transform="matrix(-1 -1.74846e-07 -1.74846e-07 1 26.2012 21.0888)" fill="#23578F"/>
<circle cx="4.7929" cy="4.7929" r="4.7929" transform="matrix(-1 -1.74846e-07 -1.74846e-07 1 38.3432 5.7515)" fill="#23578F"/>
<circle cx="3.83432" cy="3.83432" r="3.83432" transform="matrix(-1 -1.74846e-07 -1.74846e-07 1 51.1243 1.52588e-05)" fill="#23578F"/>
</svg>
